
        <svg xmlns="http://www.w3.org/2000/svg" xmlns:xlink="http://www.w3.org/1999/xlink" version="1.1" width="3250" 
        height="1612.5" viewBox="0 0 3250 1612.5">
			<rect fill="#c7f3ff" width="3250" height="1612.5"/>
			<g transform="scale(12.5) translate(10, 10)">
				<defs id="SvgjsDefs3660"></defs><g id="SvgjsG3661" featureKey="rootContainer" transform="matrix(1,0,0,1,0,0)" fill="#111111"><rect xmlns="http://www.w3.org/2000/svg" width="240" height="109" rx="10" ry="10"></rect></g><g id="SvgjsG3662" featureKey="uKAeQw-0" transform="matrix(1.4996777464010056,0,0,1.4996777464010056,19.998303062776465,12.440273387527775)" fill="#c7f3ff"><path d="M7.7246 11.9629 l-0.36132 -0.20509 c-0.29297 -0.15625 -0.52409 -0.29297 -0.69336 -0.41016 c-0.50781 -0.35808 -0.82356 -0.77475 -0.94727 -1.25 c-0.14323 -0.55989 -0.065107 -1.0481 0.23438 -1.4648 c0.33203 -0.44922 0.81055 -0.60872 1.4355 -0.47852 c0.38411 0.071611 0.65755 0.17903 0.82031 0.32227 c0.15625 0.13672 0.29948 0.38086 0.42969 0.73242 c-0.13021 -0.23438 -0.3418 -0.39063 -0.63477 -0.46875 c-0.28646 -0.084639 -0.54361 -0.061855 -0.77147 0.06835 c-0.39063 0.22786 -0.56966 0.56966 -0.53711 1.0254 c0.032549 0.42969 0.2181 0.80078 0.55664 1.1133 c0.39063 0.36458 0.88542 0.52408 1.4844 0.47851 c0.61198 -0.05208 1.0808 -0.29622 1.4063 -0.73242 c0.24089 -0.31901 0.39389 -0.7487 0.45899 -1.2891 c0.045576 -0.41016 0.039063 -0.86263 -0.019531 -1.3574 c-0.14974 -1.2109 -0.8431 -2.0735 -2.0801 -2.5879 c-1.4388 -0.44271 -2.9427 -0.53385 -4.5117 -0.27343 c-0.97005 0.20183 -1.7839 0.62826 -2.4414 1.2793 c-0.70313 0.68359 -1.1133 1.5104 -1.2305 2.4805 c-0.091143 0.67708 -0.022783 1.3184 0.20508 1.9238 c0.24739 0.65104 0.65755 1.2142 1.2305 1.6895 c0.24089 0.20833 0.64128 0.45572 1.2012 0.74218 l0.35156 0.17578 l0.35156 0.17578 c0.26042 0.14323 0.48503 0.27344 0.67383 0.39063 c1.0612 0.65104 1.5625 1.4453 1.5039 2.3828 c-0.026045 0.41016 -0.094404 0.74544 -0.20508 1.0059 c-0.14323 0.33854 -0.36784 0.55664 -0.67383 0.6543 c-0.67708 0.22136 -1.1849 -0.048828 -1.5234 -0.81055 l0 0.0097656 l0.0097656 0.0097656 c0.0065136 0.0065136 0.0097656 0.0032615 0.0097656 -0.0097561 c0.3125 0.41667 0.66406 0.52409 1.0547 0.32227 c0.36458 -0.18229 0.57291 -0.51758 0.62499 -1.0059 c0.078125 -0.625 -0.10091 -1.1198 -0.53711 -1.4844 c-0.36458 -0.30599 -0.85938 -0.49153 -1.4844 -0.55664 c-0.87891 -0.084639 -1.6569 0.20508 -2.334 0.86914 c-0.70313 0.70313 -0.93099 1.5169 -0.68359 2.4414 c0.24739 0.91797 0.80729 1.6309 1.6797 2.1387 c0.79427 0.45573 1.7253 0.67709 2.793 0.66407 c1.8164 -0.013018 3.1706 -0.25391 4.0625 -0.72266 c0.95703 -0.5013 1.6406 -1.1719 2.0508 -2.0117 c0.54688 -1.1263 0.5013 -2.2591 -0.13672 -3.3984 c-0.53386 -0.9375 -1.3606 -1.7317 -2.4805 -2.3828 z M13.9033203125 5.605 l-0.000019073 4.2676 c0.25391 -0.44271 0.58919 -0.80729 1.0059 -1.0938 c0.42969 -0.28646 0.85612 -0.42969 1.2793 -0.42969 c0.83984 0 1.4355 0.41016 1.7871 1.2305 c0.22786 0.53386 0.3418 1.2337 0.3418 2.0996 c0 0.30599 -0.013018 0.67383 -0.039063 1.1035 l-0.039063 0.53711 c-0.013018 0.21484 -0.022783 0.38086 -0.029297 0.49805 c-0.05208 0.91146 -0.17578 1.9466 -0.37109 3.1055 c-0.071611 0.44922 -0.16602 0.96354 -0.2832 1.543 l-0.29297 1.5332 l5.4199 0 c-0.045576 0 -0.14648 -0.48828 -0.30273 -1.4648 c-0.05208 -0.30599 -0.10742 -0.6608 -0.16602 -1.0645 l-0.039063 -0.21484 l-0.0097656 -0.097656 l-0.0097656 -0.078125 c-0.019531 -0.11719 -0.032549 -0.18555 -0.039063 -0.20508 c-0.20183 -1.2891 -0.35808 -2.8255 -0.46875 -4.6094 l-0.029297 -0.40039 l-0.019531 -0.40039 c-0.013018 -0.3125 -0.0065041 -0.58919 0.019541 -0.83008 c0.05208 -0.625 0.22135 -1.1263 0.5078 -1.5039 c0.55339 -0.70964 1.3411 -0.80729 2.3633 -0.29297 c0.51433 0.26042 0.97006 0.59245 1.3672 0.99609 l0 -4.2285 l-11.953 0 z M33.353496875 11.2207 c-0.071611 -0.80729 -0.11068 -1.6504 -0.1172 -2.5293 c0.78125 -0.039063 1.4421 0.026045 1.9824 0.19531 c0.67058 0.21484 0.97979 0.55664 0.92774 1.0254 c-0.1237 1.1133 -1.0547 1.5495 -2.793 1.3086 z M41.644796875 15.976600000000001 c-0.13672 0.20833 -0.30919 0.39388 -0.51752 0.55664 c-0.41667 0.33203 -0.81055 0.39388 -1.1816 0.18555 c-0.20183 -0.10417 -0.38412 -0.27995 -0.54688 -0.52734 c-0.1237 -0.17578 -0.25065 -0.4069 -0.38086 -0.69336 c0 -0.0065136 -0.045576 -0.11394 -0.13672 -0.32227 l-0.25391 -0.58594 l-0.27344 -0.57617 c-0.16276 -0.33203 -0.34831 -0.63477 -0.55664 -0.9082 c0.59245 -0.1888 0.99609 -0.33203 1.2109 -0.42969 c0.59896 -0.26042 1.0481 -0.67383 1.3477 -1.2402 c0.26042 -0.48177 0.39063 -1.0156 0.39063 -1.6016 c0 -0.13672 -0.0065136 -0.27669 -0.019531 -0.41992 c-0.019531 -0.20183 -0.05208 -0.40039 -0.097656 -0.5957 c-0.11719 -0.53386 -0.31901 -1.0091 -0.60547 -1.4258 c-0.82683 -1.2044 -2.2493 -1.8066 -4.2676 -1.8066 l-6.875 0 c0.70964 4.8177 0.70313 9.5638 -0.019531 14.238 c-0.0065136 0.032549 -0.013027 0.061846 -0.019541 0.087891 l0 0.029297 l5.7813 0 c-0.45573 -1.8815 -0.75521 -3.8835 -0.89845 -6.0059 l0.18555 0.058594 c0.60547 0.24739 1.0449 0.68033 1.3184 1.2988 c0.10417 0.24089 0.19531 0.52734 0.27344 0.85938 l0.087891 0.44922 l0.078125 0.43945 l0.068359 0.3418 l0.068359 0.3418 c0.05208 0.25391 0.10742 0.47852 0.16602 0.67383 c0.15625 0.48828 0.36458 0.88542 0.625 1.1914 c0.70313 0.83984 1.5788 1.1882 2.627 1.0449 c0.5013 -0.071611 0.95377 -0.26041 1.3574 -0.5664 c0.40364 -0.3125 0.71614 -0.70964 0.9375 -1.1914 c0.071611 -0.16927 0.13346 -0.3483 0.18554 -0.5371 c0.16276 -0.61849 0.17253 -1.2891 0.029297 -2.0117 z M50.0400796875 16.2207 c-0.39063 -0.26042 -0.63479 -0.59894 -0.73244 -1.0156 c-0.091143 -0.39714 -0.042314 -0.778 0.14648 -1.1426 c0.19531 -0.37761 0.49153 -0.64779 0.88867 -0.81056 c0.091143 0.37109 0.28971 0.67708 0.59569 0.91797 c0.30599 0.24739 0.6543 0.37109 1.0449 0.37109 c0.46875 0 0.86914 -0.16602 1.2012 -0.49805 c0.32552 -0.33203 0.48828 -0.72917 0.48828 -1.1914 c0 -0.35808 -0.10091 -0.68359 -0.30273 -0.97656 c-0.20833 -0.33854 -0.60221 -0.5957 -1.1816 -0.77148 c-0.63802 -0.19531 -1.2858 -0.19856 -1.9434 -0.0097656 c-0.5013 0.14323 -0.99287 0.39389 -1.4746 0.75196 c0.11067 -1.0091 0.45247 -1.8489 1.0254 -2.5195 c0.57942 -0.67708 1.2532 -1.0156 2.0215 -1.0156 c0.54688 0 1.0547 0.18229 1.5234 0.54688 c0.45573 0.35156 0.82357 0.82683 1.1035 1.4258 c0.097656 -1.1067 0.23112 -2.2168 0.40039 -3.3301 c0.05208 -0.35156 0.10742 -0.68034 0.16602 -0.98633 c0.013018 -0.097656 0.029297 -0.18555 0.048828 -0.26367 c0 -0.026045 0.0032521 -0.05209 0.0097656 -0.078135 l0 -0.019531 l0.0097656 0 l-10.732 0 c0.70964 2.7083 0.95378 5.7813 0.73242 9.2188 c-0.071611 1.1653 -0.19531 2.3015 -0.37109 3.4082 c-0.058594 0.40364 -0.1237 0.78125 -0.19531 1.1328 c-0.05208 0.27344 -0.10091 0.48503 -0.14648 0.63477 l10.674 0 c-0.44922 -1.3021 -0.70313 -2.9622 -0.76172 -4.9805 c-0.29297 0.50781 -0.64778 0.90495 -1.0645 1.1914 c-0.4362 0.29948 -0.9017 0.44922 -1.3965 0.44922 c-0.73567 0 -1.3281 -0.14648 -1.7773 -0.43945 z M64.421871875 9.414 c0.5013 1.4519 0.88217 2.8157 1.1426 4.0918 c-0.72917 0.25391 -1.5039 0.31901 -2.3242 0.19531 c0.26692 -1.3347 0.6608 -2.7637 1.1816 -4.2871 z M71.267171875 19.9999904633 c-0.013018 -0.058594 -0.55177 -1.6341 -1.6162 -4.7266 s-1.4339 -6.3151 -1.1084 -9.668 l-8.2324 0 c0.13021 3.8802 -0.28972 7.2347 -1.2598 10.063 s-1.4616 4.2725 -1.4746 4.3311 l5.7129 0 c-0.3125 -0.89192 -0.45247 -1.9563 -0.41992 -3.1934 c1.1979 0.34505 2.2331 0.319 3.1055 -0.078135 c0.039063 1.2695 -0.097656 2.3601 -0.41016 3.2715 l5.7031 0 z M80.2880921875 5.625 c0.16927 2.194 0.65757 4.1765 1.4648 5.9473 c0.16276 -0.23438 0.32878 -0.6543 0.49805 -1.2598 c0.14323 -0.53386 0.26042 -1.136 0.35156 -1.8066 c0.11067 -0.84636 0.17578 -1.8066 0.19531 -2.8809 l5.7813 0 c-0.51433 3.9714 -0.49805 7.5521 0.048828 10.742 c0.16927 0.99609 0.38411 1.8978 0.64453 2.7051 c0.045576 0.14323 0.091152 0.2767 0.13673 0.4004 c0.032549 0.10417 0.068359 0.20183 0.10742 0.29297 l0.039063 0.097656 c0.0065136 0.026045 0.016279 0.05209 0.029297 0.078135 l0.0097656 0.019531 l0.0097656 0.019531 l0 0.019531 l-4.9121 0 c0.17578 -1.5169 0.16602 -3.0566 -0.029297 -4.6191 c-0.058594 -0.51433 -0.13347 -0.97331 -0.22461 -1.377 c-0.039063 -0.15625 -0.071611 -0.27995 -0.097656 -0.37109 c-0.026045 -0.078125 -0.042324 -0.11067 -0.048838 -0.097656 c0.0065136 -0.013018 -0.0032521 0.019531 -0.029297 0.097656 l-0.019531 0.068359 l-0.029297 0.078125 c-0.026045 0.071611 -0.048828 0.13997 -0.068359 0.20508 c-0.065107 0.19531 -0.12695 0.39063 -0.18555 0.58594 c-0.078125 0.26042 -0.14974 0.52409 -0.21484 0.79102 c-0.18229 0.69661 -0.32878 1.3899 -0.43945 2.0801 c-0.14323 0.87891 -0.23112 1.7317 -0.26367 2.5586 l-3.125 0 c0 -2.3242 -0.41667 -4.5085 -1.25 -6.5527 c-0.37761 1.7188 -0.48178 3.3105 -0.31251 4.7754 c0.05208 0.46224 0.13346 0.88867 0.24413 1.2793 c0.013018 0.065107 0.029297 0.13021 0.048828 0.19532 c0.019531 0.05208 0.035811 0.10416 0.048828 0.15624 l0.019531 0.058594 l0.019531 0.039063 c0.0065136 0.026045 0.0097656 0.042324 0.0097656 0.048838 l-5.1074 0 c1.0547 -3.2097 1.5755 -6.0384 1.5625 -8.4863 c0 -0.91146 -0.078125 -1.9141 -0.23438 -3.0078 c-0.039063 -0.31901 -0.10742 -0.78451 -0.20508 -1.3965 l-0.10742 -0.70313 l-0.10742 -0.78125 l5.7422 0 z M98.3809 16.2207 c-0.39063 -0.26042 -0.63479 -0.59894 -0.73244 -1.0156 c-0.091143 -0.39714 -0.042314 -0.778 0.14648 -1.1426 c0.19531 -0.37761 0.49153 -0.64779 0.88867 -0.81056 c0.091143 0.37109 0.28971 0.67708 0.59569 0.91797 c0.30599 0.24739 0.6543 0.37109 1.0449 0.37109 c0.46875 0 0.86914 -0.16602 1.2012 -0.49805 c0.32552 -0.33203 0.48828 -0.72917 0.48828 -1.1914 c0 -0.35808 -0.10091 -0.68359 -0.30273 -0.97656 c-0.20833 -0.33854 -0.60221 -0.5957 -1.1816 -0.77148 c-0.63802 -0.19531 -1.2858 -0.19856 -1.9434 -0.0097656 c-0.5013 0.14323 -0.99287 0.39389 -1.4746 0.75196 c0.11067 -1.0091 0.45247 -1.8489 1.0254 -2.5195 c0.57942 -0.67708 1.2532 -1.0156 2.0215 -1.0156 c0.54688 0 1.0547 0.18229 1.5234 0.54688 c0.45573 0.35156 0.82357 0.82683 1.1035 1.4258 c0.097656 -1.1067 0.23112 -2.2168 0.40039 -3.3301 c0.05208 -0.35156 0.10742 -0.68034 0.16602 -0.98633 c0.013018 -0.097656 0.029297 -0.18555 0.048828 -0.26367 c0 -0.026045 0.0032521 -0.05209 0.0097656 -0.078135 l0 -0.019531 l0.0097656 0 l-10.732 0 c0.70964 2.7083 0.95378 5.7813 0.73242 9.2188 c-0.071611 1.1653 -0.19531 2.3015 -0.37109 3.4082 c-0.058594 0.40364 -0.1237 0.78125 -0.19531 1.1328 c-0.05208 0.27344 -0.10091 0.48503 -0.14648 0.63477 l10.674 0 c-0.44922 -1.3021 -0.70313 -2.9622 -0.76172 -4.9805 c-0.29297 0.50781 -0.64778 0.90495 -1.0645 1.1914 c-0.4362 0.29948 -0.9017 0.44922 -1.3965 0.44922 c-0.73567 0 -1.3281 -0.14648 -1.7773 -0.43945 z M111.0146296875 11.2207 c-0.071611 -0.80729 -0.11068 -1.6504 -0.1172 -2.5293 c0.78125 -0.039063 1.4421 0.026045 1.9824 0.19531 c0.67058 0.21484 0.97979 0.55664 0.92774 1.0254 c-0.1237 1.1133 -1.0547 1.5495 -2.793 1.3086 z M119.3059296875 15.976600000000001 c-0.13672 0.20833 -0.30919 0.39388 -0.51752 0.55664 c-0.41667 0.33203 -0.81055 0.39388 -1.1816 0.18555 c-0.20183 -0.10417 -0.38412 -0.27995 -0.54688 -0.52734 c-0.1237 -0.17578 -0.25065 -0.4069 -0.38086 -0.69336 c0 -0.0065136 -0.045576 -0.11394 -0.13672 -0.32227 l-0.25391 -0.58594 l-0.27344 -0.57617 c-0.16276 -0.33203 -0.34831 -0.63477 -0.55664 -0.9082 c0.59245 -0.1888 0.99609 -0.33203 1.2109 -0.42969 c0.59896 -0.26042 1.0481 -0.67383 1.3477 -1.2402 c0.26042 -0.48177 0.39063 -1.0156 0.39063 -1.6016 c0 -0.13672 -0.0065136 -0.27669 -0.019531 -0.41992 c-0.019531 -0.20183 -0.05208 -0.40039 -0.097656 -0.5957 c-0.11719 -0.53386 -0.31901 -1.0091 -0.60547 -1.4258 c-0.82683 -1.2044 -2.2493 -1.8066 -4.2676 -1.8066 l-6.875 0 c0.70964 4.8177 0.70313 9.5638 -0.019531 14.238 c-0.0065136 0.032549 -0.013027 0.061846 -0.019541 0.087891 l0 0.029297 l5.7813 0 c-0.45573 -1.8815 -0.75521 -3.8835 -0.89845 -6.0059 l0.18555 0.058594 c0.60547 0.24739 1.0449 0.68033 1.3184 1.2988 c0.10417 0.24089 0.19531 0.52734 0.27344 0.85938 l0.087891 0.44922 l0.078125 0.43945 l0.068359 0.3418 l0.068359 0.3418 c0.05208 0.25391 0.10742 0.47852 0.16602 0.67383 c0.15625 0.48828 0.36458 0.88542 0.625 1.1914 c0.70313 0.83984 1.5788 1.1882 2.627 1.0449 c0.5013 -0.071611 0.95377 -0.26041 1.3574 -0.5664 c0.40364 -0.3125 0.71614 -0.70964 0.9375 -1.1914 c0.071611 -0.16927 0.13346 -0.3483 0.18554 -0.5371 c0.16276 -0.61849 0.17253 -1.2891 0.029297 -2.0117 z M130.02538125 11.9629 l-0.36132 -0.20509 c-0.29297 -0.15625 -0.52409 -0.29297 -0.69336 -0.41016 c-0.50781 -0.35808 -0.82356 -0.77475 -0.94727 -1.25 c-0.14323 -0.55989 -0.065107 -1.0481 0.23438 -1.4648 c0.33203 -0.44922 0.81055 -0.60872 1.4355 -0.47852 c0.38411 0.071611 0.65755 0.17903 0.82031 0.32227 c0.15625 0.13672 0.29948 0.38086 0.42969 0.73242 c-0.13021 -0.23438 -0.3418 -0.39063 -0.63477 -0.46875 c-0.28646 -0.084639 -0.54361 -0.061855 -0.77147 0.06835 c-0.39063 0.22786 -0.56966 0.56966 -0.53711 1.0254 c0.032549 0.42969 0.2181 0.80078 0.55664 1.1133 c0.39063 0.36458 0.88542 0.52408 1.4844 0.47851 c0.61198 -0.05208 1.0808 -0.29622 1.4063 -0.73242 c0.24089 -0.31901 0.39389 -0.7487 0.45899 -1.2891 c0.045576 -0.41016 0.039063 -0.86263 -0.019531 -1.3574 c-0.14974 -1.2109 -0.8431 -2.0735 -2.0801 -2.5879 c-1.4388 -0.44271 -2.9427 -0.53385 -4.5117 -0.27343 c-0.97005 0.20183 -1.7839 0.62826 -2.4414 1.2793 c-0.70313 0.68359 -1.1133 1.5104 -1.2305 2.4805 c-0.091143 0.67708 -0.022783 1.3184 0.20508 1.9238 c0.24739 0.65104 0.65755 1.2142 1.2305 1.6895 c0.24089 0.20833 0.64128 0.45572 1.2012 0.74218 l0.35156 0.17578 l0.35156 0.17578 c0.26042 0.14323 0.48503 0.27344 0.67383 0.39063 c1.0612 0.65104 1.5625 1.4453 1.5039 2.3828 c-0.026045 0.41016 -0.094404 0.74544 -0.20508 1.0059 c-0.14323 0.33854 -0.36784 0.55664 -0.67383 0.6543 c-0.67708 0.22136 -1.1849 -0.048828 -1.5234 -0.81055 l0 0.0097656 l0.0097656 0.0097656 c0.0065136 0.0065136 0.0097656 0.0032615 0.0097656 -0.0097561 c0.3125 0.41667 0.66406 0.52409 1.0547 0.32227 c0.36458 -0.18229 0.57291 -0.51758 0.62499 -1.0059 c0.078125 -0.625 -0.10091 -1.1198 -0.53711 -1.4844 c-0.36458 -0.30599 -0.85938 -0.49153 -1.4844 -0.55664 c-0.87891 -0.084639 -1.6569 0.20508 -2.334 0.86914 c-0.70313 0.70313 -0.93099 1.5169 -0.68359 2.4414 c0.24739 0.91797 0.80729 1.6309 1.6797 2.1387 c0.79427 0.45573 1.7253 0.67709 2.793 0.66407 c1.8164 -0.013018 3.1706 -0.25391 4.0625 -0.72266 c0.95703 -0.5013 1.6406 -1.1719 2.0508 -2.0117 c0.54688 -1.1263 0.5013 -2.2591 -0.13672 -3.3984 c-0.53386 -0.9375 -1.3606 -1.7317 -2.4805 -2.3828 z"></path></g><g id="SvgjsG3663" featureKey="uKAeQw-1" transform="matrix(1.54863364438257,0,0,1.54863364438257,20.000512481569864,56.66025783110238)" fill="#c7f3ff"><path d="M12.773 -0.5180000000000007 c-0.89192 0.60547 -1.6667 1.364 -2.3242 2.2754 c-0.66406 0.91797 -1.1426 1.8945 -1.4355 2.9297 c-0.40364 1.4453 -0.64615 2.9736 -0.72753 4.585 s-0.18229 2.9558 -0.30272 4.0332 s-0.56152 1.6765 -1.3232 1.7969 s-1.3965 -0.4183 -1.9043 -1.6162 c-0.078125 -0.25391 -0.13997 -0.54688 -0.18555 -0.87891 c-0.026045 -0.22786 -0.048828 -0.51432 -0.068359 -0.85937 c-0.045576 -0.83984 0.026035 -1.8685 0.21483 -3.0859 c0.22136 -1.4453 0.53386 -2.4609 0.9375 -3.0469 l-5.6543 0 c0.14974 0.37109 0.29947 0.8138 0.44921 1.3281 c0.1237 0.41667 0.22787 0.82357 0.31251 1.2207 c0.20183 0.87891 0.28646 2.0345 0.25392 3.4668 l-0.019531 0.89844 l-0.029297 0.89844 c-0.013018 0.70964 -0.0097656 1.3184 0.0097656 1.8262 c0.039063 0.76172 0.21484 1.5137 0.52734 2.2559 c0.34505 0.8138 0.90494 1.4583 1.6797 1.9336 c0.71614 0.4362 1.5332 0.68686 2.4512 0.75196 c0.90495 0.065107 1.8262 -0.061846 2.7637 -0.38086 s1.7302 -0.99932 2.3779 -2.041 s0.98145 -2.8841 1.001 -5.5273 c0.039063 -4.0169 0.55013 -6.8913 1.5332 -8.623 c0.32552 -0.58594 0.72266 -1.0938 1.1914 -1.5234 c1.3997 -1.2825 2.8743 -1.9304 4.4238 -1.9434 c0.59896 -0.0065136 1.1621 0.10742 1.6895 0.3418 c0.61198 0.26692 1.0449 0.64127 1.2988 1.123 c-0.13021 -0.16276 -0.30924 -0.25717 -0.5371 -0.28321 c-0.1888 -0.026045 -0.39063 -0.0032615 -0.60547 0.06835 c-0.4362 0.14323 -0.66406 0.47852 -0.68359 1.0059 c-0.019531 0.47526 0.10742 0.89193 0.38086 1.25 c0.28646 0.36458 0.6315 0.60547 1.0352 0.72266 c0.36458 0.11067 0.74544 0.10416 1.1426 -0.019541 c0.37761 -0.11067 0.71289 -0.3125 1.0059 -0.60547 c0.30599 -0.29948 0.51758 -0.65104 0.63477 -1.0547 c0.20183 -0.67708 0.18555 -1.3411 -0.048828 -1.9922 c-0.21484 -0.58594 -0.5957 -1.1198 -1.1426 -1.6016 c-0.51433 -0.45573 -1.1165 -0.81706 -1.8066 -1.084 c-0.69011 -0.26042 -1.377 -0.39063 -2.0605 -0.39063 c-2.4935 0 -4.6452 0.61523 -6.4551 1.8457 z M22.9951171875 5.605 c0.084639 0.31901 0.19208 1.1264 0.32229 2.4219 c0.14974 1.4974 0.24414 2.8938 0.2832 4.1895 c-0.95052 -1.2239 -1.6146 -2.3145 -1.9922 -3.2715 c-0.33203 -0.82031 -0.57942 -1.9043 -0.74219 -3.252 l-5.4004 0 c0.57942 2.6953 0.70638 5.8821 0.38086 9.5605 c-0.097656 1.1523 -0.23763 2.2884 -0.41992 3.4082 c-0.058594 0.34505 -0.11719 0.67057 -0.17578 0.97655 c-0.019531 0.097656 -0.035811 0.18555 -0.048828 0.26367 l-0.0097656 0.039063 l0 0.029297 l-0.0097656 0.019531 l0 0.0097656 l4.9707 0 c-0.48177 -1.2239 -0.73242 -2.6367 -0.75195 -4.2383 c0 -0.51433 0.019531 -0.99932 0.058594 -1.4551 c0.019531 -0.16276 0.039063 -0.29623 0.058594 -0.4004 c0.013018 -0.097656 0.022783 -0.13997 0.029297 -0.12695 c-0.0065136 -0.0065136 0 -0.0032615 0.019531 0.0097561 l0.058594 0.058594 c0.071611 0.078125 0.15299 0.17253 0.24413 0.2832 c0.28646 0.34505 0.56966 0.74219 0.84961 1.1914 c0.39063 0.61198 0.73894 1.2663 1.0449 1.9629 c0.38411 0.87239 0.6901 1.7773 0.91796 2.7148 l5.3906 0 l-0.0097656 -0.0097656 l0 -0.019531 l-0.019531 -0.078125 c-0.013018 -0.097656 -0.029297 -0.20183 -0.048828 -0.3125 c-0.065107 -0.35156 -0.12695 -0.72591 -0.18555 -1.123 c-0.1888 -1.2695 -0.33203 -2.5195 -0.42969 -3.75 c-0.30599 -3.9388 -0.087891 -6.9727 0.6543 -9.1016 l-5.0391 0 z M36.04885 15.7715 c-0.14323 -0.31901 -0.24088 -0.70965 -0.29296 -1.1719 c-0.045576 -0.34505 -0.068359 -0.75195 -0.068359 -1.2207 c0 -1.4192 0.16602 -3.0827 0.49805 -4.9902 c0.10417 -0.60547 0.22461 -1.2239 0.36133 -1.8555 c0.026045 -0.11067 0.05209 -0.22461 0.078135 -0.3418 c0.013018 -0.071611 0.032549 -0.1595 0.058594 -0.26367 c0.039063 -0.18229 0.061846 -0.28972 0.068359 -0.32227 l-5.5957 0 c0.70964 2.8906 0.95378 6.0188 0.73242 9.3848 c-0.071611 1.1394 -0.19531 2.2429 -0.37109 3.3105 c-0.058594 0.38411 -0.1237 0.74544 -0.19531 1.084 c-0.05208 0.25391 -0.10091 0.45898 -0.14648 0.61523 l10.674 0 l0 -6.2598 c-0.29948 0.54036 -0.68686 1.084 -1.1621 1.6309 c-0.41667 0.47526 -0.83334 0.84636 -1.25 1.1133 c-0.52083 0.33854 -1.0254 0.50781 -1.5137 0.50781 c-0.89844 0 -1.5234 -0.4069 -1.875 -1.2207 z M50.6260171875 16.2207 c-0.39063 -0.26042 -0.63479 -0.59894 -0.73244 -1.0156 c-0.091143 -0.39714 -0.042314 -0.778 0.14648 -1.1426 c0.19531 -0.37761 0.49153 -0.64779 0.88867 -0.81056 c0.091143 0.37109 0.28971 0.67708 0.59569 0.91797 c0.30599 0.24739 0.6543 0.37109 1.0449 0.37109 c0.46875 0 0.86914 -0.16602 1.2012 -0.49805 c0.32552 -0.33203 0.48828 -0.72917 0.48828 -1.1914 c0 -0.35808 -0.10091 -0.68359 -0.30273 -0.97656 c-0.20833 -0.33854 -0.60221 -0.5957 -1.1816 -0.77148 c-0.63802 -0.19531 -1.2858 -0.19856 -1.9434 -0.0097656 c-0.5013 0.14323 -0.99287 0.39389 -1.4746 0.75196 c0.11067 -1.0091 0.45247 -1.8489 1.0254 -2.5195 c0.57942 -0.67708 1.2532 -1.0156 2.0215 -1.0156 c0.54688 0 1.0547 0.18229 1.5234 0.54688 c0.45573 0.35156 0.82357 0.82683 1.1035 1.4258 c0.097656 -1.1067 0.23112 -2.2168 0.40039 -3.3301 c0.05208 -0.35156 0.10742 -0.68034 0.16602 -0.98633 c0.013018 -0.097656 0.029297 -0.18555 0.048828 -0.26367 c0 -0.026045 0.0032521 -0.05209 0.0097656 -0.078135 l0 -0.019531 l0.0097656 0 l-10.732 0 c0.70964 2.7083 0.95378 5.7813 0.73242 9.2188 c-0.071611 1.1653 -0.19531 2.3015 -0.37109 3.4082 c-0.058594 0.40364 -0.1237 0.78125 -0.19531 1.1328 c-0.05208 0.27344 -0.10091 0.48503 -0.14648 0.63477 l10.674 0 c-0.44922 -1.3021 -0.70313 -2.9622 -0.76172 -4.9805 c-0.29297 0.50781 -0.64778 0.90495 -1.0645 1.1914 c-0.4362 0.29948 -0.9017 0.44922 -1.3965 0.44922 c-0.73567 0 -1.3281 -0.14648 -1.7773 -0.43945 z M65.007809375 9.414 c0.5013 1.4519 0.88217 2.8157 1.1426 4.0918 c-0.72917 0.25391 -1.5039 0.31901 -2.3242 0.19531 c0.26692 -1.3347 0.6608 -2.7637 1.1816 -4.2871 z M71.853109375 19.9999904633 c-0.013018 -0.058594 -0.55177 -1.6341 -1.6162 -4.7266 s-1.4339 -6.3151 -1.1084 -9.668 l-8.2324 0 c0.13021 3.8802 -0.28972 7.2347 -1.2598 10.063 s-1.4616 4.2725 -1.4746 4.3311 l5.7129 0 c-0.3125 -0.89192 -0.45247 -1.9563 -0.41992 -3.1934 c1.1979 0.34505 2.2331 0.319 3.1055 -0.078135 c0.039063 1.2695 -0.097656 2.3601 -0.41016 3.2715 l5.7031 0 z M81.5869046875 11.9629 l-0.36132 -0.20509 c-0.29297 -0.15625 -0.52409 -0.29297 -0.69336 -0.41016 c-0.50781 -0.35808 -0.82356 -0.77475 -0.94727 -1.25 c-0.14323 -0.55989 -0.065107 -1.0481 0.23438 -1.4648 c0.33203 -0.44922 0.81055 -0.60872 1.4355 -0.47852 c0.38411 0.071611 0.65755 0.17903 0.82031 0.32227 c0.15625 0.13672 0.29948 0.38086 0.42969 0.73242 c-0.13021 -0.23438 -0.3418 -0.39063 -0.63477 -0.46875 c-0.28646 -0.084639 -0.54361 -0.061855 -0.77147 0.06835 c-0.39063 0.22786 -0.56966 0.56966 -0.53711 1.0254 c0.032549 0.42969 0.2181 0.80078 0.55664 1.1133 c0.39063 0.36458 0.88542 0.52408 1.4844 0.47851 c0.61198 -0.05208 1.0808 -0.29622 1.4063 -0.73242 c0.24089 -0.31901 0.39389 -0.7487 0.45899 -1.2891 c0.045576 -0.41016 0.039063 -0.86263 -0.019531 -1.3574 c-0.14974 -1.2109 -0.8431 -2.0735 -2.0801 -2.5879 c-1.4388 -0.44271 -2.9427 -0.53385 -4.5117 -0.27343 c-0.97005 0.20183 -1.7839 0.62826 -2.4414 1.2793 c-0.70313 0.68359 -1.1133 1.5104 -1.2305 2.4805 c-0.091143 0.67708 -0.022783 1.3184 0.20508 1.9238 c0.24739 0.65104 0.65755 1.2142 1.2305 1.6895 c0.24089 0.20833 0.64128 0.45572 1.2012 0.74218 l0.35156 0.17578 l0.35156 0.17578 c0.26042 0.14323 0.48503 0.27344 0.67383 0.39063 c1.0612 0.65104 1.5625 1.4453 1.5039 2.3828 c-0.026045 0.41016 -0.094404 0.74544 -0.20508 1.0059 c-0.14323 0.33854 -0.36784 0.55664 -0.67383 0.6543 c-0.67708 0.22136 -1.1849 -0.048828 -1.5234 -0.81055 l0 0.0097656 l0.0097656 0.0097656 c0.0065136 0.0065136 0.0097656 0.0032615 0.0097656 -0.0097561 c0.3125 0.41667 0.66406 0.52409 1.0547 0.32227 c0.36458 -0.18229 0.57291 -0.51758 0.62499 -1.0059 c0.078125 -0.625 -0.10091 -1.1198 -0.53711 -1.4844 c-0.36458 -0.30599 -0.85938 -0.49153 -1.4844 -0.55664 c-0.87891 -0.084639 -1.6569 0.20508 -2.334 0.86914 c-0.70313 0.70313 -0.93099 1.5169 -0.68359 2.4414 c0.24739 0.91797 0.80729 1.6309 1.6797 2.1387 c0.79427 0.45573 1.7253 0.67709 2.793 0.66407 c1.8164 -0.013018 3.1706 -0.25391 4.0625 -0.72266 c0.95703 -0.5013 1.6406 -1.1719 2.0508 -2.0117 c0.54688 -1.1263 0.5013 -2.2591 -0.13672 -3.3984 c-0.53386 -0.9375 -1.3606 -1.7317 -2.4805 -2.3828 z M94.91408125 5.605 l-0.000019073 0.0097561 l0.0097656 0.029297 c0.0065136 0.032549 0.013027 0.068359 0.019541 0.10742 c0.026045 0.1237 0.05209 0.25717 0.078135 0.4004 c0.091143 0.46875 0.17578 0.96028 0.25391 1.4746 c0.24739 1.6472 0.39388 3.2292 0.43945 4.7461 c-0.64453 0.078125 -1.2988 0.019531 -1.9629 -0.17578 c-0.25391 -0.071611 -0.50456 -0.16602 -0.75195 -0.2832 c-0.19531 -0.091143 -0.38411 -0.19205 -0.56641 -0.30272 c0.058594 -1.4323 0.20508 -2.8613 0.43945 -4.2871 c0.071611 -0.44271 0.14974 -0.86263 0.23438 -1.2598 l0.039063 -0.19531 c0.013018 -0.05208 0.022783 -0.10091 0.029297 -0.14648 l0.019531 -0.048828 l0.0097656 -0.039063 l0 -0.019531 l0 -0.0097656 l-5.3418 0 c0.70964 2.8906 0.95378 6.0188 0.73242 9.3848 c-0.071611 1.1394 -0.19531 2.2429 -0.37109 3.3105 c-0.058594 0.38411 -0.1237 0.74544 -0.19531 1.084 c-0.05208 0.25391 -0.10091 0.45898 -0.14648 0.61523 l5.5469 0 c-0.48177 -1.4714 -0.79427 -3.0989 -0.9375 -4.8828 c1.1523 0.58594 2.2103 0.71614 3.1738 0.39063 c-0.13672 1.7839 -0.45898 3.2813 -0.9668 4.4922 l5.5371 0 c-0.039063 -0.15625 -0.084639 -0.36133 -0.13672 -0.61523 c-0.071611 -0.33854 -0.13997 -0.69987 -0.20508 -1.084 c-0.16927 -1.0677 -0.29297 -2.1712 -0.37109 -3.3105 c-0.21484 -3.3659 0.032549 -6.4941 0.74219 -9.3848 l-5.3516 0 z M108.6514078125 16.2207 c-0.39063 -0.26042 -0.63479 -0.59894 -0.73244 -1.0156 c-0.091143 -0.39714 -0.042314 -0.778 0.14648 -1.1426 c0.19531 -0.37761 0.49153 -0.64779 0.88867 -0.81056 c0.091143 0.37109 0.28971 0.67708 0.59569 0.91797 c0.30599 0.24739 0.6543 0.37109 1.0449 0.37109 c0.46875 0 0.86914 -0.16602 1.2012 -0.49805 c0.32552 -0.33203 0.48828 -0.72917 0.48828 -1.1914 c0 -0.35808 -0.10091 -0.68359 -0.30273 -0.97656 c-0.20833 -0.33854 -0.60221 -0.5957 -1.1816 -0.77148 c-0.63802 -0.19531 -1.2858 -0.19856 -1.9434 -0.0097656 c-0.5013 0.14323 -0.99287 0.39389 -1.4746 0.75196 c0.11067 -1.0091 0.45247 -1.8489 1.0254 -2.5195 c0.57942 -0.67708 1.2532 -1.0156 2.0215 -1.0156 c0.54688 0 1.0547 0.18229 1.5234 0.54688 c0.45573 0.35156 0.82357 0.82683 1.1035 1.4258 c0.097656 -1.1067 0.23112 -2.2168 0.40039 -3.3301 c0.05208 -0.35156 0.10742 -0.68034 0.16602 -0.98633 c0.013018 -0.097656 0.029297 -0.18555 0.048828 -0.26367 c0 -0.026045 0.0032521 -0.05209 0.0097656 -0.078135 l0 -0.019531 l0.0097656 0 l-10.732 0 c0.70964 2.7083 0.95378 5.7813 0.73242 9.2188 c-0.071611 1.1653 -0.19531 2.3015 -0.37109 3.4082 c-0.058594 0.40364 -0.1237 0.78125 -0.19531 1.1328 c-0.05208 0.27344 -0.10091 0.48503 -0.14648 0.63477 l10.674 0 c-0.44922 -1.3021 -0.70313 -2.9622 -0.76172 -4.9805 c-0.29297 0.50781 -0.64778 0.90495 -1.0645 1.1914 c-0.4362 0.29948 -0.9017 0.44922 -1.3965 0.44922 c-0.73567 0 -1.3281 -0.14648 -1.7773 -0.43945 z M121.5879375 15.761700000000001 c-0.05208 -0.52734 -0.084639 -1.1165 -0.097656 -1.7676 c-0.045576 -1.8425 0.071611 -3.3333 0.35156 -4.4727 c0.026045 -0.11067 0.17578 -0.13021 0.44922 -0.058594 c0.097656 0.026045 0.22136 0.065107 0.37109 0.11719 l0.17578 0.058594 c0.071611 0.026045 0.12369 0.045576 0.15624 0.058594 c0.83984 0.29297 1.4355 0.81706 1.7871 1.5723 c0.31901 0.69011 0.39389 1.4485 0.22462 2.2754 c-0.17578 0.8138 -0.54688 1.4941 -1.1133 2.041 c-0.61849 0.59245 -1.3509 0.88867 -2.1973 0.88867 c-0.032549 0 -0.068359 -0.23763 -0.10742 -0.71289 z M128.4724375 9.648 c-0.79427 -1.8034 -2.1062 -2.9915 -3.9355 -3.5645 c-1.1394 -0.36458 -2.9492 -0.54036 -5.4297 -0.52734 l-1.1621 0 l-0.27344 0 l-0.2832 -0.0097656 l-0.61523 0 c0.70964 2.8972 0.95378 6.0286 0.73242 9.3945 c-0.071611 1.1328 -0.19531 2.2331 -0.37109 3.3008 c-0.058594 0.38411 -0.1237 0.74544 -0.19531 1.084 c-0.05208 0.25391 -0.10091 0.46224 -0.14648 0.625 c2.2591 0.045576 3.3854 0.058594 3.3789 0.039063 l2.6953 0 c1.1523 0 2.1745 -0.23763 3.0664 -0.71289 c0.94401 -0.5013 1.6829 -1.2402 2.2168 -2.2168 c0.79427 -1.4648 1.1133 -3.0925 0.95703 -4.8828 c-0.084639 -0.91146 -0.29623 -1.7546 -0.63478 -2.5293 z"></path></g>
			</g>
		</svg>
	